<svg width="19" height="19" viewBox="0 0 19 19" fill="none" xmlns="http://www.w3.org/2000/svg">
<path d="M6.49999 17.2642H12.5C15.515 17.2642 16.055 16.0567 16.2125 14.5867L16.775 8.58666C16.9775 6.75666 16.4525 5.26416 13.25 5.26416H5.74999C2.54749 5.26416 2.02249 6.75666 2.22499 8.58666L2.78749 14.5867C2.94499 16.0567 3.48499 17.2642 6.49999 17.2642Z" stroke="#808080" stroke-width="1.2" stroke-miterlimit="10" stroke-linecap="round" stroke-linejoin="round"/>
<path d="M6.5 5.26416V4.66416C6.5 3.33666 6.5 2.26416 8.9 2.26416H10.1C12.5 2.26416 12.5 3.33666 12.5 4.66416V5.26416" stroke="#808080" stroke-width="1.2" stroke-miterlimit="10" stroke-linecap="round" stroke-linejoin="round"/>
<path d="M11 10.5142V11.2642C11 11.2717 11 11.2717 11 11.2792C11 12.0967 10.9925 12.7642 9.5 12.7642C8.015 12.7642 8 12.1042 8 11.2867V10.5142C8 9.76416 8 9.76416 8.75 9.76416H10.25C11 9.76416 11 9.76416 11 10.5142Z" stroke="#808080" stroke-width="1.2" stroke-miterlimit="10" stroke-linecap="round" stroke-linejoin="round"/>
<path d="M16.7375 9.01416C15.005 10.2742 13.025 11.0242 11 11.2792" stroke="#808080" stroke-width="1.2" stroke-miterlimit="10" stroke-linecap="round" stroke-linejoin="round"/>
<path d="M2.46503 9.21666C4.15253 10.3717 6.05753 11.0692 8.00003 11.2867" stroke="#808080" stroke-width="1.2" stroke-miterlimit="10" stroke-linecap="round" stroke-linejoin="round"/>
</svg>
