<svg width="15" height="20" viewBox="0 0 15 20" fill="none" xmlns="http://www.w3.org/2000/svg">
<path d="M7.57031 0C7.54688 0.335938 7.5 0.648437 7.5 0.953125C7.49219 2.46094 7.49219 3.96875 7.5 5.48437C7.5 6.64062 8.35156 7.5 9.51563 7.5C11.0156 7.5 12.5078 7.50781 14.0078 7.5C14.3281 7.5 14.6484 7.46094 15 7.4375C15 7.53125 15 7.65625 15 7.78125C15 11.3203 15 14.8594 15 18.3984C15 19.4687 14.4687 20 13.3906 20C9.46094 20 5.53125 20 1.60156 20C0.53125 20 0 19.4687 0 18.3906C0 12.7969 0 7.20312 0 1.60156C0 0.53125 0.53125 0 1.60156 0C3.47656 0 5.35156 0 7.22656 0C7.35156 0 7.47656 0 7.57031 0ZM6.875 12.2422C6.5625 11.9297 6.33594 11.6797 6.09375 11.4531C5.80469 11.1875 5.4375 11.1797 5.1875 11.4297C4.9375 11.6797 4.92188 12.0625 5.1875 12.3359C5.78906 12.9531 6.39062 13.5547 7.00781 14.1562C7.35156 14.4844 7.65625 14.4766 7.99219 14.1484C8.58594 13.5625 9.17188 12.9766 9.75781 12.3828C10.0547 12.0781 10.0703 11.7109 9.82031 11.4453C9.55469 11.1719 9.17188 11.1875 8.85938 11.5C8.63281 11.7266 8.42187 11.9609 8.20312 12.1953C8.17187 12.1797 8.14063 12.1562 8.11719 12.1406C8.11719 12.0156 8.11719 11.8906 8.11719 11.7656C8.11719 10.7109 8.11719 9.65625 8.11719 8.60156C8.11719 8.09375 7.90625 7.83594 7.5 7.82812C7.07812 7.82031 6.86719 8.08594 6.86719 8.61719C6.875 9.77344 6.875 10.9453 6.875 12.2422ZM7.46094 16.875C8.47656 16.875 9.49219 16.875 10.5078 16.875C10.9766 16.875 11.2422 16.6563 11.25 16.2734C11.2578 15.8672 10.9922 15.6328 10.5078 15.6328C8.50781 15.6328 6.5 15.6328 4.5 15.6328C4.02344 15.6328 3.76562 15.8438 3.75781 16.2344C3.75 16.6406 4.01562 16.875 4.5 16.875C5.48437 16.875 6.46875 16.875 7.46094 16.875Z" fill="#344A82"/>
<path d="M8.75 0.710938C10.6094 2.57031 12.4297 4.39063 14.2656 6.22656C14.1563 6.23438 14.0469 6.25 13.9453 6.25C12.5313 6.25 11.1094 6.25 9.69531 6.25C9.02344 6.25 8.75781 5.98438 8.75781 5.30469C8.75781 3.89063 8.75781 2.46875 8.75781 1.05469C8.75 0.953125 8.75 0.851563 8.75 0.710938Z" fill="#344A82"/>
</svg>
