<svg width="16" height="17" viewBox="0 0 16 17" fill="none" xmlns="http://www.w3.org/2000/svg">
<path d="M16 8.5C16 12.918 12.418 16.5 8 16.5C3.582 16.5 0 12.918 0 8.5H1.33333C1.33333 12.176 4.324 15.1667 8 15.1667C11.676 15.1667 14.6667 12.176 14.6667 8.5C14.6667 4.824 11.676 1.83333 8 1.83333C6.14867 1.83333 4.47533 2.594 3.26733 3.818L4.64133 5.192L0 6.09467L0.87 1.41933L2.32267 2.87267C3.77067 1.40867 5.77733 0.5 8 0.5C12.418 0.5 16 4.082 16 8.5ZM7.33333 4.5V9.83333H12V8.5H8.66667V4.5H7.33333Z" fill="#808080"/>
</svg>
