<svg width="16" height="17" viewBox="0 0 16 17" fill="none" xmlns="http://www.w3.org/2000/svg">
<path fill-rule="evenodd" clip-rule="evenodd" d="M9.29557 14.5777H9.76953V13.6526H9.29557V14.5777ZM0.785156 0.5H15.2135C15.4284 0.5 15.625 0.592509 15.7669 0.740796C15.9102 0.890443 15.9987 1.09587 15.9987 1.32034V15.6783C15.9987 15.9041 15.9102 16.1096 15.7682 16.2592C15.6263 16.4075 15.4297 16.5 15.2135 16.5H0.785156C0.56901 16.5 0.372396 16.4075 0.230469 16.2592C0.0885417 16.1109 0 15.9041 0 15.6783V1.32034C0 1.09587 0.0885417 0.890443 0.231771 0.740796C0.375 0.592509 0.570312 0.5 0.785156 0.5ZM15.0195 1.5244H0.980469V7.88168H2.37109V7.33207C2.35807 7.32663 2.34635 7.31847 2.33594 7.31167C2.3151 7.29806 2.29557 7.28174 2.27865 7.26541L2.27734 7.26269C2.2474 7.23276 2.22396 7.19467 2.20703 7.15386C2.19141 7.11304 2.18229 7.06815 2.18229 7.02189C2.18229 6.97428 2.19141 6.93075 2.20703 6.88993C2.22396 6.84776 2.2487 6.80967 2.27865 6.77566C2.30859 6.74437 2.34505 6.71852 2.38542 6.70083C2.42578 6.68451 2.46745 6.67498 2.51172 6.67498C2.55729 6.67498 2.59896 6.68451 2.63802 6.70083C2.67839 6.71852 2.71484 6.74437 2.74609 6.77566C2.77604 6.80831 2.80078 6.84504 2.81771 6.88721L2.81901 6.88993C2.83464 6.92939 2.84375 6.97428 2.84375 7.01917C2.84375 7.06543 2.83464 7.11032 2.81901 7.15113C2.80208 7.19331 2.77734 7.2314 2.7474 7.26269L2.74479 7.26541C2.72917 7.28038 2.71354 7.29534 2.69531 7.30758C2.6849 7.31439 2.67578 7.32119 2.66536 7.32527V8.03405C2.66536 8.07623 2.64844 8.11568 2.6224 8.14289C2.59505 8.1701 2.55859 8.18778 2.51823 8.18778H0.980469V8.65033H3.14323C3.14844 8.63808 3.15495 8.6272 3.16146 8.61632L3.16276 8.61496C3.17578 8.59455 3.1901 8.57686 3.20573 8.56054C3.23698 8.52925 3.27214 8.5034 3.3138 8.48572L3.31641 8.48435C3.35547 8.46803 3.39714 8.45851 3.4401 8.45851C3.48437 8.45851 3.52734 8.46803 3.56641 8.48435C3.60677 8.50204 3.64453 8.52789 3.67318 8.55918C3.70312 8.59047 3.72786 8.62856 3.74479 8.67073C3.76042 8.71291 3.76953 8.75644 3.76953 8.8027C3.76953 8.85031 3.76042 8.89384 3.74479 8.93466C3.72786 8.97683 3.70312 9.01492 3.67318 9.04621C3.64193 9.0775 3.60677 9.10335 3.56641 9.12104L3.5638 9.1224C3.52474 9.13872 3.48307 9.14824 3.4401 9.14824C3.39453 9.14824 3.35286 9.13872 3.3138 9.1224C3.27344 9.10471 3.23698 9.07886 3.20573 9.04757C3.1901 9.03125 3.17448 9.0122 3.16276 8.99043C3.15625 8.97955 3.14974 8.96731 3.14453 8.95642H0.980469V9.48971H3.42318C3.46354 9.48971 3.5 9.5074 3.52734 9.53461C3.55469 9.56181 3.57031 9.59991 3.57031 9.64344V10.7848C3.58333 10.7903 3.59766 10.7984 3.61068 10.8066C3.63281 10.8216 3.65495 10.8379 3.67318 10.8583C3.70312 10.891 3.72786 10.9277 3.74479 10.9699L3.74609 10.9726C3.76172 11.0134 3.76953 11.0569 3.76953 11.1018C3.76953 11.1481 3.76042 11.193 3.74479 11.2338C3.72786 11.276 3.70312 11.314 3.67318 11.3481C3.64323 11.3793 3.60677 11.4052 3.56641 11.4229C3.52604 11.4392 3.48437 11.4487 3.4401 11.4487C3.39583 11.4487 3.35286 11.4392 3.3138 11.4229C3.27344 11.4052 3.23698 11.3793 3.20703 11.3481C3.17708 11.3168 3.15234 11.2787 3.13542 11.2365C3.11979 11.1957 3.11068 11.1508 3.11068 11.1045C3.11068 11.0569 3.11979 11.0134 3.13542 10.9726C3.15234 10.9304 3.17708 10.891 3.20703 10.8597C3.22135 10.8447 3.23568 10.8325 3.2526 10.8202C3.26042 10.8148 3.26953 10.8093 3.27734 10.8039V9.79989H0.980469V10.2352H2.26823C2.30859 10.2352 2.34505 10.2529 2.37109 10.2801C2.39844 10.3087 2.41406 10.3468 2.41406 10.389V10.9998C2.42448 11.0052 2.4349 11.0107 2.44531 11.0175C2.46484 11.0311 2.48307 11.046 2.4987 11.0624L2.5013 11.0651C2.52995 11.0964 2.55339 11.1345 2.57031 11.1753C2.58594 11.2161 2.59505 11.261 2.59505 11.3072C2.59505 11.3549 2.58594 11.3984 2.57031 11.4392L2.56901 11.4419C2.55208 11.4841 2.52865 11.5208 2.4987 11.5521L2.49609 11.5535C2.46615 11.5848 2.42969 11.6093 2.39062 11.6269C2.35286 11.646 2.3099 11.6555 2.26562 11.6555C2.22135 11.6555 2.17839 11.646 2.13932 11.6297C2.09896 11.612 2.0612 11.5861 2.03255 11.5548L2.02995 11.5521C2.0013 11.5208 1.97786 11.4827 1.96094 11.4419C1.94531 11.3998 1.9362 11.3562 1.9362 11.31C1.9362 11.2637 1.94531 11.2202 1.96094 11.1794C1.97786 11.1372 2.0026 11.0977 2.03255 11.0678C2.04948 11.0488 2.06771 11.0338 2.08854 11.0202C2.09896 11.012 2.11068 11.0066 2.1224 10.9998V10.5454H0.980469V15.4756H3.17839V14.0131H2.65365C2.64714 14.0254 2.64062 14.039 2.63411 14.0499C2.62109 14.0716 2.60547 14.092 2.58984 14.1084L2.58724 14.1097C2.55859 14.141 2.52214 14.1655 2.48307 14.1832C2.44401 14.1995 2.40104 14.209 2.35677 14.209C2.3112 14.209 2.26953 14.1995 2.23047 14.1832C2.1901 14.1655 2.15365 14.1397 2.12109 14.1084C2.09115 14.0771 2.06641 14.039 2.04948 13.9968C2.03385 13.9546 2.02474 13.9111 2.02474 13.8648C2.02474 13.8172 2.03385 13.7737 2.04948 13.7329C2.06641 13.6907 2.09115 13.6526 2.12109 13.6213C2.15234 13.59 2.1875 13.5642 2.22786 13.5465L2.23047 13.5451C2.26823 13.5288 2.3112 13.5193 2.35417 13.5193C2.39844 13.5193 2.44141 13.5288 2.48047 13.5451C2.52083 13.5628 2.55729 13.5887 2.58724 13.62L2.58984 13.6227C2.60547 13.639 2.61849 13.6553 2.63021 13.6744C2.63672 13.6853 2.64323 13.6948 2.64714 13.7057H3.32552C3.36589 13.7057 3.40365 13.7234 3.42969 13.7506C3.45573 13.7791 3.47266 13.8172 3.47266 13.8594V15.4756H3.91536V13.205C3.90365 13.1996 3.89323 13.1928 3.88281 13.186H3.88151C3.86198 13.1724 3.84505 13.1574 3.82943 13.1411C3.79948 13.1085 3.77474 13.0717 3.75781 13.0295L3.75651 13.0268C3.74089 12.986 3.73177 12.9425 3.73177 12.8962C3.73177 12.85 3.74089 12.8051 3.75651 12.7643C3.77344 12.7221 3.79818 12.6826 3.82812 12.6527C3.85807 12.6214 3.89453 12.5956 3.9349 12.5779C3.97526 12.5616 4.01693 12.552 4.0612 12.552C4.10677 12.552 4.14844 12.5616 4.1875 12.5779C4.22786 12.5956 4.26432 12.6214 4.29427 12.6527C4.32422 12.6854 4.34896 12.7221 4.36589 12.7643L4.36719 12.767C4.38281 12.8078 4.39062 12.8513 4.39062 12.8962C4.39062 12.9438 4.38151 12.9874 4.36589 13.0282C4.34896 13.0704 4.32422 13.1085 4.29427 13.1397C4.27865 13.1561 4.26042 13.1724 4.23958 13.1846C4.22917 13.1914 4.21745 13.1982 4.20703 13.2037V15.4729H4.71745V12.9125C4.71745 12.8704 4.73438 12.8323 4.76042 12.8037C4.78646 12.7751 4.82292 12.7588 4.86458 12.7588H5.95703C5.96354 12.7452 5.97005 12.7303 5.97786 12.7166C5.99219 12.6935 6.00911 12.6704 6.02734 12.6513C6.05859 12.6201 6.09375 12.5942 6.13411 12.5765L6.13672 12.5752C6.17578 12.5588 6.21745 12.5507 6.26042 12.5507C6.30469 12.5507 6.34766 12.5602 6.38672 12.5765C6.42708 12.5942 6.46354 12.6201 6.49609 12.6513C6.52604 12.6826 6.55078 12.7207 6.56771 12.7629C6.58333 12.8051 6.59245 12.8486 6.59245 12.8949C6.59245 12.9425 6.58333 12.986 6.56771 13.0268C6.55078 13.069 6.52604 13.1071 6.49609 13.1384C6.46615 13.1697 6.42969 13.1955 6.38932 13.2132C6.35026 13.2295 6.30729 13.2391 6.26302 13.2391C6.21745 13.2391 6.17578 13.2295 6.13672 13.2132C6.09635 13.1955 6.0599 13.1697 6.02865 13.1384C6.01432 13.1234 6.0026 13.1085 5.99088 13.0908C5.98568 13.0826 5.98047 13.0731 5.97526 13.0649H5.01432V15.4729H5.43099V14.1179C5.43099 14.0757 5.44792 14.0376 5.47396 14.0104C5.5013 13.9818 5.53776 13.9655 5.57812 13.9655H6.16276C6.16797 13.9546 6.17318 13.9438 6.18099 13.9329C6.19401 13.9125 6.20833 13.8934 6.22396 13.8771L6.22656 13.8744C6.25651 13.8444 6.29167 13.82 6.33203 13.8023C6.37109 13.7859 6.41406 13.7764 6.45833 13.7764C6.5026 13.7764 6.54557 13.7859 6.58464 13.8023L6.58724 13.8036C6.6276 13.8213 6.66276 13.8458 6.69271 13.8771L6.69401 13.8798C6.72396 13.9111 6.7474 13.9478 6.76432 13.9886C6.77995 14.0295 6.78906 14.0744 6.78906 14.1206C6.78906 14.1669 6.77995 14.2118 6.76432 14.2526C6.7474 14.2947 6.72266 14.3342 6.69271 14.3641L6.6901 14.3668C6.66016 14.3968 6.6237 14.4213 6.58464 14.439C6.54427 14.4553 6.5026 14.4648 6.45833 14.4648C6.41406 14.4648 6.37109 14.4553 6.33203 14.439C6.29167 14.4213 6.25391 14.3954 6.22526 14.3641C6.20833 14.3464 6.19271 14.3274 6.17969 14.3056C6.17187 14.2947 6.16667 14.2825 6.16016 14.2703H5.72526V15.4702H15.0182V1.5244H15.0195ZM4.27474 5.88866H4.46094V5.3785H4.27474V5.88866ZM2.18099 5.88866H2.36719V5.3785H2.18099V5.88866ZM2.14974 3.00863H3.13021C3.17318 3.00863 3.20964 3.04536 3.20964 3.09162V5.12546C3.20964 5.17035 3.17318 5.20708 3.13021 5.20708H2.14974C2.10677 5.20708 2.07031 5.17035 2.07031 5.12546V3.09026C2.07031 3.044 2.10677 3.00863 2.14974 3.00863ZM2.94271 2.31889H3.09635V2.82905H2.94271V2.31889ZM2.57812 2.31889H2.73177V2.82905H2.57812V2.31889ZM2.18099 2.31889H2.36719V2.82905H2.18099V2.31889ZM2.94271 5.88866H3.09635V5.3785H2.94271V5.88866ZM2.57812 5.88866H2.73177V5.3785H2.57812V5.88866ZM4.24349 3.00863H5.22396C5.26823 3.00863 5.30208 3.04536 5.30208 3.09162V5.12546C5.30208 5.17035 5.26693 5.20708 5.22396 5.20708H4.24349C4.20052 5.20708 4.16536 5.17035 4.16536 5.12546V3.09026C4.16406 3.044 4.20052 3.00863 4.24349 3.00863ZM5.03646 2.31889H5.19141V2.82905H5.03646V2.31889ZM4.67188 2.31889H4.82552V2.82905H4.67188V2.31889ZM4.27474 2.31889H4.46094V2.82905H4.27474V2.31889ZM5.03646 5.88866H5.19141V5.3785H5.03646V5.88866ZM4.67188 5.88866H4.82552V5.3785H4.67188V5.88866ZM6.6875 2.87531C6.6875 2.80184 6.76562 2.74063 6.86328 2.74063C6.96094 2.74063 7.03906 2.80048 7.03906 2.87531V7.3416C7.03906 7.41506 6.96094 7.47628 6.86328 7.47628C6.76562 7.47628 6.6875 7.41642 6.6875 7.3416V2.87531ZM7.83724 2.85762V3.06169H8.5V2.85762H7.83724ZM7.83724 5.9662V6.17163H8.5V5.9662H7.83724ZM13.3333 5.7771V6.39474C13.3333 6.44235 13.2956 6.4818 13.25 6.4818H8.68359C8.63672 6.4818 8.60026 6.44235 8.60026 6.39474V5.7771C8.60026 5.72949 8.63672 5.69003 8.68359 5.69003H13.25C13.2956 5.69003 13.3333 5.72949 13.3333 5.7771ZM13.9557 5.9662V6.17163H13.4414V5.9662H13.9557ZM7.83724 4.41123V4.61666H8.5V4.41123H7.83724ZM13.3333 4.22349V4.83977C13.3333 4.88874 13.2956 4.92683 13.25 4.92683H8.68359C8.63672 4.92683 8.60026 4.88874 8.60026 4.83977V4.22349C8.60026 4.17452 8.63672 4.13643 8.68359 4.13643H13.25C13.2956 4.13643 13.3333 4.17452 13.3333 4.22349ZM13.9557 4.41123V4.61666H13.4414V4.41123H13.9557ZM13.3333 2.66852V3.28616C13.3333 3.33377 13.2956 3.37322 13.25 3.37322H8.68359C8.63672 3.37322 8.60026 3.33377 8.60026 3.28616V2.66852C8.60026 2.62091 8.63672 2.58146 8.68359 2.58146H13.25C13.2956 2.58146 13.3333 2.61955 13.3333 2.66852ZM13.9557 2.85762V3.06169H13.4414V2.85762H13.9557ZM9.03646 9.60943H12.2526C12.362 9.60943 12.4531 9.7033 12.4531 9.81894V13.1901C12.4531 13.3057 12.3633 13.3996 12.2526 13.3996H9.03646C8.92578 13.3996 8.83594 13.3057 8.83594 13.1901V9.81757C8.83594 9.7033 8.92578 9.60943 9.03646 9.60943ZM9.88281 10.5876H11.4049C11.4714 10.5876 11.526 10.6447 11.526 10.7141V12.2922C11.526 12.3616 11.4714 12.4187 11.4049 12.4187H9.88281C9.81641 12.4187 9.76172 12.3616 9.76172 12.2922V10.7141C9.76172 10.6447 9.81641 10.5876 9.88281 10.5876ZM13.6562 11.6814V12.0936H12.7708V11.6814H13.6562ZM13.6562 10.8937V11.3059H12.7708V10.8937H13.6562ZM13.6562 12.4691V12.9642H12.7708V12.4691H13.6562ZM13.6562 10.0216V10.5168H12.7708V10.0216H13.6562ZM7.7526 11.6814V12.0936H8.63802V11.6814H7.7526ZM7.7526 10.8937V11.3059H8.63802V10.8937H7.7526ZM7.7526 12.4691V12.9642H8.63802V12.4691H7.7526ZM7.7526 10.0216V10.5168H8.63802V10.0216H7.7526ZM10.8841 8.40953H11.2786V9.33462H10.8841V8.40953ZM10.1302 8.40953H10.5247V9.33462H10.1302V8.40953ZM11.638 8.40953H12.112V9.33462H11.638V8.40953ZM9.29557 8.40953H9.76953V9.33462H9.29557V8.40953ZM10.8841 14.5777H11.2786V13.6526H10.8841V14.5777ZM10.1302 14.5777H10.5247V13.6526H10.1302V14.5777ZM11.638 14.5777H12.112V13.6526H11.638V14.5777Z" fill="#808080"/>
</svg>
