<svg width="16" height="17" viewBox="0 0 16 17" fill="none" xmlns="http://www.w3.org/2000/svg">
<path d="M13.3333 12.8333C13.3333 13.0173 13.184 13.1667 13 13.1667C12.816 13.1667 12.6667 13.0173 12.6667 12.8333C12.6667 12.6493 12.816 12.5 13 12.5C13.184 12.5 13.3333 12.6493 13.3333 12.8333ZM16 11.1667L12.6667 1.83334H3.33333L0 11.1667V15.1667H16V11.1667ZM4.22267 3.16668H11.778L14.278 10.5H1.722L4.22267 3.16668ZM14.6667 13.8333H1.33333V11.8333H14.6667V13.8333ZM7.33333 3.83334V7.16668H5.33333L8 9.83334L10.6667 7.16668H8.66667V3.83334H7.33333Z" fill="#808080"/>
</svg>
