<svg width="10" height="10" viewBox="0 0 10 10" fill="none" xmlns="http://www.w3.org/2000/svg">
<path d="M2.36395 0.00107225C2.51958 0.0428809 2.60759 0.156514 2.68916 0.285156C3.05732 0.864045 3.43191 1.43972 3.80328 2.01646C3.94496 2.23623 3.92993 2.37559 3.74425 2.56212C3.51885 2.78724 3.29667 3.01773 3.06483 3.23749C2.9371 3.3597 2.90812 3.49692 2.9371 3.66201C3.04766 4.27949 3.30847 4.83051 3.68414 5.32685C4.1564 5.95291 4.73815 6.44925 5.45406 6.78158C5.74707 6.91772 6.05405 7.01313 6.37282 7.06781C6.52416 7.09353 6.65189 7.05709 6.76244 6.94238C6.99321 6.70332 7.23149 6.47177 7.46655 6.23699C7.6254 6.07941 7.77674 6.06225 7.96672 6.18339C8.58281 6.57897 9.1989 6.97454 9.81499 7.37119C10.0007 7.49018 10.0468 7.65849 9.95237 7.86003C9.65399 8.49466 9.35453 9.12929 9.05507 9.76393C8.96706 9.95153 8.8447 10.0191 8.63969 9.99548C7.53953 9.86577 6.49626 9.54524 5.51953 9.02316C3.55856 7.9758 2.04731 6.47176 0.992234 4.51641C0.50065 3.60519 0.178651 2.63502 0.0369721 1.60695C0.0240921 1.5169 0.00799243 1.42685 0.00155247 1.3368C-0.0113275 1.14813 0.0552185 1.03878 0.228024 0.957311C0.740001 0.716107 1.25198 0.474903 1.76396 0.235844C1.93676 0.15437 2.11279 0.0782572 2.28667 0C2.31135 0.00107202 2.33711 0.00107225 2.36395 0.00107225Z" fill="#FF7F00"/>
</svg>
