<svg width="18" height="18" viewBox="0 0 18 18" fill="none" xmlns="http://www.w3.org/2000/svg">
<circle cx="9" cy="9" r="9" fill="#F4F4F4"/>
<path d="M5 6.6529C5.02371 6.5861 5.04633 6.51929 5.07543 6.43848C5.96006 7.34035 6.83608 8.23469 7.69378 9.11071C6.84793 9.97379 5.97084 10.8681 5.08081 11.7775C5.04849 11.686 5.02478 11.6181 5 11.5502C5 9.91776 5 8.28533 5 6.6529Z" fill="#808080"/>
<path d="M5.43237 6.05807C5.56275 6.03652 5.67374 6.00419 5.7858 6.00312C6.35688 5.99773 6.92904 6.00096 7.50012 6.00096C9.33835 6.00096 11.1766 5.99988 13.0148 6.00312C13.1355 6.00312 13.2551 6.03436 13.3758 6.0516C13.3769 6.0613 13.3769 6.071 13.3779 6.0807C13.3618 6.09901 13.3467 6.11841 13.3284 6.13565C12.2185 7.2401 11.1098 8.34455 9.99995 9.44792C9.76397 9.68282 9.48597 9.77548 9.16811 9.66342C9.0485 9.6214 8.93105 9.54274 8.83947 9.45223C7.72209 8.34778 6.61009 7.23795 5.49595 6.13026C5.47871 6.1141 5.46578 6.09686 5.43237 6.05807Z" fill="#808080"/>
<path d="M8.11736 9.46191C8.24343 9.58906 8.35872 9.70435 8.47294 9.82072C8.72831 10.0793 9.03755 10.2216 9.40283 10.2248C9.77457 10.228 10.0892 10.0879 10.351 9.82504C10.4663 9.70866 10.5816 9.59337 10.7055 9.46838C11.5869 10.3681 12.4651 11.2635 13.3411 12.1578C13.2711 12.1708 13.1666 12.2031 13.0621 12.2053C12.7205 12.2117 12.3778 12.2085 12.0363 12.2085C9.96206 12.2085 7.88785 12.2096 5.81364 12.2063C5.69296 12.2063 5.57335 12.1751 5.47314 12.1611C6.35563 11.2603 7.23272 10.3649 8.11736 9.46191Z" fill="#808080"/>
<path d="M13.7691 6.45293C13.7885 6.55314 13.823 6.65335 13.823 6.75356C13.8262 8.32134 13.8262 9.8902 13.823 11.458C13.823 11.5582 13.7874 11.6573 13.768 11.7575C13.7583 11.7597 13.7486 11.7618 13.7389 11.7651C12.8629 10.8718 11.9869 9.97747 11.126 9.0993C11.9751 8.23298 12.8532 7.33865 13.7303 6.44324C13.7433 6.44647 13.7562 6.4497 13.7691 6.45293Z" fill="#808080"/>
</svg>
