<svg width="18" height="18" viewBox="0 0 18 18" fill="none" xmlns="http://www.w3.org/2000/svg">
<circle cx="9" cy="9" r="9" fill="#F4F4F4"/>
<path d="M6.80996 4.84757C6.93926 4.8823 7.01238 4.97671 7.08014 5.08358C7.38599 5.5645 7.69719 6.04275 8.00572 6.5219C8.12342 6.70447 8.11094 6.82025 7.95667 6.97521C7.76942 7.16224 7.58484 7.35371 7.39223 7.53629C7.28612 7.63782 7.26205 7.75181 7.28612 7.88896C7.37797 8.40195 7.59465 8.85972 7.90674 9.27206C8.29908 9.79217 8.78238 10.2045 9.37713 10.4806C9.62056 10.5937 9.87558 10.673 10.1404 10.7184C10.2661 10.7398 10.3723 10.7095 10.4641 10.6142C10.6558 10.4156 10.8538 10.2232 11.049 10.0282C11.181 9.89726 11.3067 9.88301 11.4646 9.98365C11.9764 10.3123 12.4882 10.6409 13.0001 10.9704C13.1543 11.0693 13.1927 11.2091 13.1142 11.3765C12.8663 11.9038 12.6175 12.431 12.3687 12.9583C12.2956 13.1141 12.194 13.1702 12.0237 13.1506C11.1097 13.0429 10.243 12.7766 9.43152 12.3428C7.80241 11.4727 6.54692 10.2232 5.67039 8.59877C5.26199 7.84176 4.99449 7.03577 4.87678 6.18169C4.86608 6.10688 4.85271 6.03207 4.84736 5.95726C4.83666 5.80051 4.89194 5.70967 5.0355 5.64198C5.46084 5.4416 5.88618 5.24121 6.31151 5.04261C6.45507 4.97493 6.60131 4.91169 6.74576 4.84668C6.76627 4.84757 6.78767 4.84757 6.80996 4.84757Z" fill="#808080"/>
</svg>
